<svg enable-background="new 0 0 32 32" viewBox="0 0 32 32" xmlns="http://www.w3.org/2000/svg"><path d="m27.7 5h-1.7v2h1.7c.2 0 .3.1.3.3v19.4c0 .2-.1.3-.3.3h-23.4c-.2 0-.3-.1-.3-.3v-19.4c0-.2.1-.3.3-.3h1.7v-2h-1.7c-1.3 0-2.3 1-2.3 2.3v19.4c0 1.3 1 2.3 2.3 2.3h23.4c1.3 0 2.3-1 2.3-2.3v-19.4c0-1.3-1-2.3-2.3-2.3z"/><path d="m12 5h8v2h-8z"/><path d="m9 10c.6 0 1-.4 1-1v-5c0-.6-.4-1-1-1s-1 .4-1 1v5c0 .6.4 1 1 1z"/><path d="m23 10c.6 0 1-.4 1-1v-5c0-.6-.4-1-1-1s-1 .4-1 1v5c0 .6.4 1 1 1z"/><path d="m8 17h2v3h-2z"/><path d="m13 17h2v3h-2z"/><path d="m18 17h2v3h-2z"/><path d="m23 17h2v3h-2z"/><path d="m8 22h2v3h-2z"/><path d="m13 22h2v3h-2z"/><path d="m18 22h2v3h-2z"/><path d="m23 22h2v3h-2z"/></svg>