<svg enable-background="new 0 0 32 32" viewBox="0 0 32 32" xmlns="http://www.w3.org/2000/svg"><path d="m29 12h-2.2c-.2 0-.4-.9-.7-1.5l1.5-1.4c.4-.4.4-1 0-1.4l-3.7-3.7c-.2-.2-.4-.3-.7-.3s-.5.1-.7.3l-1.4 1.6c-.4-.1-1.1-.3-1.1-.4v-2.2c0-.6-.8-1-1.4-1h-5.2c-.6 0-1.4.4-1.4 1v2.2c0 .2-.8.4-1.3.6l-1.6-1.7c-.4-.4-1-.4-1.4 0l-3.6 3.7c-.4.4-.4 1 0 1.4l1.7 1.5c-.2.5-.4 1.3-.6 1.3h-2.2c-.6 0-1 .8-1 1.4v5.2c0 .6.4 1.4 1 1.4h2.2c.1 0 .3.7.5 1.1l-1.6 1.5c-.2.2-.3.4-.3.7s.1.5.3.7l3.7 3.7c.4.4 1 .4 1.4 0l1.3-1.5c.5.3 1.5.5 1.5.7v2.1c0 .6.8 1 1.4 1h5.2c.6 0 1.4-.4 1.4-1v-2.2c0-.2.8-.4 1.3-.6l1.3 1.4c.4.4 1 .4 1.4 0l3.7-3.7c.2-.2.3-.4.3-.7s-.1-.5-.3-.7l-1.4-1.2c.2-.5.4-1.3.6-1.3h2.1c.6 0 1-.8 1-1.4v-5.2c0-.6-.4-1.4-1-1.4zm-1 6h-1.9c-.5 0-.9.1-1 .6-.2.8-.6 1.6-1 2.3-.2.4-.2.8.2 1.2l1.2 1.2-2.3 2.3-1.2-1.4c-.3-.3-.8-.4-1.2-.2-.8.4-1.4.8-2.2 1-.4.1-.6.5-.6 1v2h-4v-1.9c0-.5-.1-.9-.6-1-.9-.2-1.7-.6-2.5-1.1-.4-.2-.9-.2-1.2.1l-1.3 1.3-2.3-2.3 1.4-1.4c.5-.2.5-.7.3-1.1-.4-.7-.7-1.3-.9-2.1-.1-.4-.5-.6-1-.6h-1.9v-4h1.9c.5 0 .9-.1 1-.6.2-.9.6-1.6 1-2.3.2-.4.2-.8-.2-1.2l-1.4-1.3 2.3-2.3 1.4 1.5c.3.3.8.4 1.2.2.7-.4 1.4-.8 2.2-1 .4-.1.6-.5.6-1v-1.9h4v1.9c0 .5.1.9.6 1 .8.2 1.5.5 2.2.9.3.2.7.2 1.1-.2l1.4-1.4 2.3 2.3-1.3 1.3c-.3.3-.4.8-.1 1.2.5.8.9 1.5 1.1 2.4.1.4.5.6 1 .6h1.7z"/><path d="m16 10c-3.3 0-6 2.7-6 6s2.7 6 6 6 6-2.7 6-6-2.7-6-6-6zm0 10c-2.2 0-4-1.8-4-4s1.8-4 4-4 4 1.8 4 4-1.8 4-4 4z"/></svg>