<svg height="32" viewBox="0 0 32 32" width="32" xmlns="http://www.w3.org/2000/svg"><path d="m15.9323 1.99924c-7.69524.03697-13.94524 6.32845-13.93228 14.02476.00629 3.7347 1.46539 7.245 4.10867 9.884 2.64349 2.6394 6.15661 4.093 9.89221 4.093.7372 0 1.4772-.058 2.1999-.1721 1.103-.1744 2.0367-.8404 2.5616-1.8273.5334-1.0029.5628-2.1711.0805-3.2051-.5274-1.1309-.7948-2.3423-.7948-3.6008 0-1.6145.4528-3.186 1.3096-4.5443.6182-.98 1.4259-1.82 2.3705-2.4739l.4799 13.9388.0006.0103c.0495 1.051.9126 1.8744 1.9648 1.8744s1.9153-.8234 1.9648-1.8744l.487-14.1393c.1772-.2305.2828-.5186.2828-.8312v-2.1876c0-.2536-.0697-.4911-.1905-.6949.0555-.0494.11-.1001.1629-.1531 1.4927-1.49264 1.4927-3.92137 0-5.41405l-2.707-2.707-2.3727 2.37255c-2.3281-1.56832-5.0324-2.38824-7.8685-2.37276zm.0079 1.64073c2.455-.01159 4.8017.68352 6.8305 2.01716-.2777.53652-.4256 1.13497-.4256 1.75642 0 1.02262.3982 1.98393 1.1213 2.70695.0529.053.1075.1037.1629.1531-.1208.2038-.1904.4413-.1904.6949v1.4483c-1.4047.8238-2.5955 1.9745-3.469 3.3594-1.0222 1.6207-1.5626 3.4947-1.5626 5.4195 0 1.4999.3191 2.9446.9486 4.2941.2625.5628.2472 1.1976-.042 1.7414-.2807.5277-.7798.8839-1.3692.977-.6382.1009-1.2922.152-1.9438.152-3.2978 0-6.39924-1.2832-8.73302-3.6132-2.33345-2.3298-3.62155-5.4286-3.62713-8.7257-.01143-6.79448 5.50607-12.34868 12.29945-12.38133zm10.2332.6798 1.5469 1.54684c.4132.41319.6407.96262.6407 1.54694s-.2274 1.13365-.6407 1.54684c-.4132.41325-.9626.64081-1.5469.64081s-1.1337-.22756-1.5469-.64081h-.0001c-.8529-.85296-.8529-2.24088 0-3.09378zm-11.1569 1.7265c-1.357 0-2.4611 1.10405-2.4611 2.4611s1.1041 2.46113 2.4611 2.46113c1.3571 0 2.4611-1.10408 2.4611-2.46113s-1.104-2.4611-2.4611-2.4611zm0 1.64074c.4524 0 .8204.36801.8204.82036s-.368.82037-.8204.82037c-.4523 0-.8204-.36802-.8204-.82037s.3681-.82036.8204-.82036zm-5.08627 2.13295c-1.35705 0-2.4611 1.10404-2.4611 2.46114 0 1.357 1.10405 2.4611 2.4611 2.4611 1.35707 0 2.46107-1.1041 2.46107-2.4611 0-1.3571-1.104-2.46114-2.46107-2.46114zm15.14947 1.42194h2.1876v1.6408h-2.1876zm-15.14947.2188c.45237 0 .82037.368.82037.8204 0 .4523-.368.8203-.82037.8203-.45235 0-.82036-.368-.82036-.8203 0-.4524.36801-.8204.82036-.8204zm15.45157 3.0627h1.5832l-.4658 13.5294c-.01.1726-.1524.3074-.3258.3074s-.3157-.1348-.3257-.3074zm-16.60008 1.8595c-1.35705 0-2.4611 1.104-2.4611 2.4611 0 1.357 1.10405 2.4611 2.4611 2.4611 1.35708 0 2.46108-1.1041 2.46108-2.4611 0-1.3571-1.104-2.4611-2.46108-2.4611zm0 1.6407c.45235 0 .82037.368.82037.8204 0 .4523-.36802.8204-.82037.8204s-.82037-.3681-.82037-.8204c0-.4524.36802-.8204.82037-.8204zm4.75808 2.8987c-1.357 0-2.4611 1.104-2.4611 2.4611 0 1.357 1.1041 2.4611 2.4611 2.4611 1.3571 0 2.4611-1.1041 2.4611-2.4611 0-1.3571-1.104-2.4611-2.4611-2.4611zm0 1.6407c.4524 0 .8204.368.8204.8204 0 .4523-.368.8203-.8204.8203-.4523 0-.8203-.368-.8203-.8203 0-.4524.368-.8204.8203-.8204z"/></svg>