<svg enable-background="new 0 0 32 32" viewBox="0 0 32 32" xmlns="http://www.w3.org/2000/svg"><path d="m16 2c-7.7 0-14 6.3-14 14s6.3 14 14 14 14-6.3 14-14-6.3-14-14-14zm11.9 13h-4.5c-.2-4.1-1.2-7.7-2.8-10.1 4.1 1.7 7 5.6 7.3 10.1zm-12.9-10.8v10.8h-4.5c.2-5.7 2.5-9.8 4.5-10.8zm0 12.8v10.8c-2-1-4.3-5-4.5-10.8zm2 10.8v-10.8h4.5c-.2 5.7-2.5 9.8-4.5 10.8zm0-12.8v-10.8c2 1 4.3 5 4.5 10.8zm-5.6-10.1c-1.7 2.4-2.7 6-2.9 10.1h-4.4c.3-4.5 3.2-8.4 7.3-10.1zm-7.3 12.1h4.5c.2 4.1 1.2 7.7 2.8 10.1-4.1-1.7-7-5.6-7.3-10.1zm16.5 10.1c1.6-2.4 2.7-5.9 2.8-10.1h4.5c-.3 4.5-3.2 8.4-7.3 10.1z"/></svg>