<svg enable-background="new 0 0 1280 1024" viewBox="0 0 1280 1024" xmlns="http://www.w3.org/2000/svg"><path d="m640 931.2-22.4-19.2c-118.4-108.8-188.8-179.2-252.8-252.8-32-35.2-67.2-70.4-105.6-112-57.6-67.2-80-150.4-64-233.6 16-76.8 64-144 131.2-179.2 41.6-19.2 76.8-28.8 108.8-28.8 70.4 0 134.4 38.4 201.6 128 102.4-121.6 198.4-153.6 310.4-96 67.2 32 115.2 99.2 131.2 179.2 16 83.2-6.4 166.4-60.8 233.6-70.4 70.4-112 115.2-147.2 150.4-57.6 60.8-99.2 102.4-211.2 211.2zm-201.6-761.6c-25.6 0-51.2 6.4-80 22.4-48 25.6-86.4 73.6-96 134.4-12.8 64 3.2 128 48 179.2 38.4 38.4 73.6 76.8 105.6 112 60.8 64 121.6 131.2 227.2 227.2l188.8-188.8c35.2-38.4 76.8-80 147.2-150.4 41.6-48 57.6-112 44.8-176-12.8-57.6-48-108.8-96-134.4-25.6-12.8-51.2-19.2-73.6-19.2-99.7 0-214.4 163.2-214.4 163.2l-25.6-35.2c-86.4-121.6-140.8-134.4-176-134.4z"/></svg>