<svg enable-background="new 0 0 32 32" viewBox="0 0 32 32" xmlns="http://www.w3.org/2000/svg"><path d="m27.3 19.1-3.3-3.3-1.4 1.4 3.3 3.3c1.5 1.5 1.5 3.9 0 5.4-1.4 1.4-3.9 1.4-5.4 0l-5.8-5.8c-.7-.7-1.1-1.6-1.1-2.6.1-1 .6-2.1 1.6-3.2.2-.2.3-.4.3-.7s-.1-.5-.3-.7c-.4-.4-1-.4-1.4 0-1.4 1.4-2.1 2.9-2.2 4.5-.1 1.5.5 2.9 1.7 4.1l5.8 5.8c1.1 1.1 2.5 1.7 4.1 1.7 1.5 0 3-.6 4.1-1.7 2.3-2.3 2.3-5.9 0-8.2z"/><path d="m11.5 6.1 5.8 5.8c1.6 1.6 1.5 3.9-.5 5.8-.2.2-.3.5-.3.7s.1.5.3.7.4.3.7.3.5-.1.7-.3c3.2-3.2 2.5-6.6.5-8.7l-5.8-5.8c-1.1-1-2.6-1.6-4.1-1.6-1.5 0-3 .6-4.1 1.7s-1.7 2.5-1.7 4.1.6 3 1.7 4.1l3.4 3.4 1.4-1.4-3.4-3.4c-.7-.7-1.1-1.7-1.1-2.7s.4-2 1.1-2.7c1.4-1.4 3.9-1.4 5.4 0z"/></svg>