<svg enable-background="new 0 0 32 32" viewBox="0 0 32 32" xmlns="http://www.w3.org/2000/svg"><path d="m20 30c-3.3 0-6.7-3.4-10.2-10.5-6.5-12.9-1.9-15.3-.2-16.2 0 0 .1-.1.1-.1.1 0 2-1 2.2-1.1s.4-.1.6-.1c.3.1.6.3.7.5l3.7 7.3c.1.2.1.5.1.8-.1.3-.3.5-.5.6l-2.2 1.1c-.2.2-.1 1.6.8 3.8 1.2 2.7 2.7 4.1 3.1 4.1.1-.1.9-.5 1.5-.8.4-.2.8-.4.8-.4.5-.2 1 .1 1.2.5l3.7 7.3c.2.5.1 1.1-.4 1.3 0 0-2.1 1.1-2.3 1.1l-.1.1c-.5.3-1.4.7-2.6.7zm-8.1-25.6c-.6.3-1.3.6-1.3.6-1.3.7-4.6 2.4 1 13.6 3.1 6.2 6 9.4 8.4 9.4.7 0 1.3-.3 1.8-.5l.1-.1c.1 0 .7-.4 1.3-.6l-2.8-5.5c-.6.3-1.3.6-1.3.7-.2.1-.5.2-.8.2-2.6 0-5.1-4.8-5.8-7.5-.7-2.6.1-3.7.9-4.1l1.3-.7z"/></svg>