<svg enable-background="new 0 0 32 32" viewBox="0 0 32 32" xmlns="http://www.w3.org/2000/svg"><path d="m20.5 7c-2.5 0-4.5 2-4.5 4.5s2 4.5 4.5 4.5 4.5-2 4.5-4.5-2-4.5-4.5-4.5zm0 7c-1.4 0-2.5-1.1-2.5-2.5s1.1-2.5 2.5-2.5 2.5 1.1 2.5 2.5-1.1 2.5-2.5 2.5z"/><path d="m26.8 3h-21.6c-1.2 0-2.2 1-2.2 2.2v21.6c0 1.2 1 2.2 2.2 2.2h21.6c1.2 0 2.2-1 2.2-2.2v-21.6c0-1.2-1-2.2-2.2-2.2zm-21.8 23.8v-5.6l5-5 10.8 10.8h-15.6c-.1 0-.2-.1-.2-.2zm22 0c0 .1-.1.2-.2.2h-3.2l-13.6-13.6-5 5v-13.2c0-.1.1-.2.2-.2h21.6c.1 0 .2.1.2.2z"/></svg>