<svg enable-background="new 0 0 32 32" viewBox="0 0 32 32" xmlns="http://www.w3.org/2000/svg"><path d="m10.2 10.4-3.6 1c1-2.3 2.8-4.1 5.1-5.2 2.5-1.1 5.3-1.2 7.9-.2 2.8 1 5.1 3.3 6.1 6.1l1.9-.7c-1.3-3.4-3.9-6-7.3-7.2-3.1-1.1-6.5-1-9.5.4-2.6 1.2-4.7 3.3-6 5.8l-.8-3.5-2 .5 1.9 6.8 6.8-1.9z"/><path d="m30 24.6-1.9-6.8-6.8 1.9.5 1.9 3.6-1c-1 2.3-2.8 4.1-5.1 5.2-2.5 1.2-5.4 1.3-8 .3-2.8-1-5.1-3.3-6.1-6.1l-1.9.7c1.3 3.4 3.9 6 7.3 7.2 1.4.5 2.8.8 4.3.8 1.8 0 3.5-.4 5.2-1.1 2.6-1.2 4.7-3.3 6-5.8l.9 3.4z"/></svg>