<svg enable-background="new 0 0 32 32" viewBox="0 0 32 32" xmlns="http://www.w3.org/2000/svg"><path d="m24 19c-1.6 0-3 .8-3.9 1.9l-7.3-3.6c.1-.4.2-.8.2-1.3 0-.4-.1-.9-.2-1.3l7.3-3.6c.9 1.1 2.3 1.9 3.9 1.9 2.8 0 5-2.2 5-5s-2.2-5-5-5-5 2.2-5 5c0 .4.1.9.2 1.3l-7.3 3.6c-.9-1.1-2.3-1.9-3.9-1.9-2.8 0-5 2.2-5 5s2.2 5 5 5c1.6 0 3-.8 3.9-1.9l7.3 3.6c-.1.4-.2.9-.2 1.3 0 2.8 2.2 5 5 5s5-2.2 5-5-2.2-5-5-5zm0-14c1.7 0 3 1.3 3 3s-1.3 3-3 3-3-1.3-3-3 1.3-3 3-3zm-16 14c-1.7 0-3-1.3-3-3s1.3-3 3-3 3 1.3 3 3-1.3 3-3 3zm16 8c-1.7 0-3-1.3-3-3s1.3-3 3-3 3 1.3 3 3-1.3 3-3 3z"/></svg>