<svg enable-background="new 0 0 32 32" viewBox="0 0 32 32" xmlns="http://www.w3.org/2000/svg"><path d="m11.5 26.3c-.2.2-.3.4-.3.7s.1.5.3.7.4.3.7.3.5-.1.7-.3.3-.5.3-.7-.1-.5-.3-.7c-.4-.4-1-.4-1.4 0z"/><path d="m21.5 26.3c-.2.2-.3.5-.3.7s.1.5.3.7.4.3.7.3.5-.1.7-.3.3-.5.3-.7-.1-.5-.3-.7c-.4-.4-1-.4-1.4 0z"/><path d="m8.7 8c-.2-1-.3-1.1-.4-1.3-.4-1.4-1.4-1.7-2-1.7h-4.3v2h4.3s.1.1.1.3c.4 1.6 4 16.8 4 17l.2.8h13.6l.4-2h-12.2c-.1 0-.3-1.2-.5-2h11.9c1.8 0 3-1.6 3.4-2.6l2.4-10.5zm16.7 9.7c-.1.3-.7 1.3-1.6 1.3h-12.4c-.7-3-1.6-6-2.2-9h18z"/></svg>