<svg enable-background="new 0 0 32 32" viewBox="0 0 32 32" xmlns="http://www.w3.org/2000/svg"><path d="m29.3 16.5-14.5-14.5-11.8 1-1 11.8 14.6 14.6c.4.4 1 .7 1.7.7.6 0 1.2-.2 1.7-.7l9.5-9.5c.4-.4.7-1 .7-1.7-.2-.7-.4-1.2-.9-1.7zm-1.4 1.9-9.5 9.5c-.2.2-.3.2-.5 0l-13.9-13.9.8-9.1 9.2-.9 13.9 13.9c.1.1.1.2.1.3 0 0 0 .1-.1.2z"/><path d="m8 8c-1.2 1.2-1.2 3.1 0 4.3.6.6 1.3.9 2.1.9s1.6-.3 2.1-.9c1.2-1.2 1.2-3.1 0-4.3-1.1-1.2-3.1-1.2-4.2 0zm2.8 2.8c-.4.4-1.1.4-1.4 0-.4-.4-.4-1 0-1.4.2-.2.4-.3.7-.3s.5.1.7.3c.4.4.4 1 0 1.4z"/></svg>