<svg height="32" viewBox="0 0 32 32" width="32" xmlns="http://www.w3.org/2000/svg"><path d="m13.9182 3.91962-11.36652 6.56248 3.28125 5.6834 1.42081-.8204-.82031-1.4208 2.13121-1.2304 4.10156 7.104-1.4208.8203.8203 1.4209 7.1041-4.1015-.8203-1.421-1.4208.8204-4.1015-7.1041 2.1312-1.23044.8203 1.42084 1.4208-.82035zm-.6005 2.24112.8204 1.4208-3.5521 2.05078 4.9219 8.52498-1.4208.8203-4.92186-8.525-3.55213 2.0508-.82031-1.4208zm10.8854 12.07586c-1.0411 0-2.0611.2818-2.9497.8147l-11.35063 6.8074c-.63377.3801-1.36193.5811-2.10589.5811-2.29179 0-4.15626-1.84-4.15626-4.1016h-1.64062c0 3.1662 2.60045 5.7422 5.79688 5.7422 1.04114 0 2.06108-.2817 2.94972-.8147l11.3506-6.8074c.6338-.3801 1.362-.581 2.1059-.581 2.2918 0 4.1563 1.8399 4.1563 4.1015h1.6406c0-3.1662-2.6004-5.7422-5.7969-5.7422z"/></svg>