<svg enable-background="new 0 0 32 32" viewBox="0 0 32 32" xmlns="http://www.w3.org/2000/svg"><path d="m21 24.7c-.6-.5-1.4-.7-2.1-.8-.8-.2-1.6-.4-2.2-.9l-.1-.1s-.3-.2-.3-.5c-.1-.3.2-.7.4-.9 1.4-1.8 2-3.5 2-5.3 0-3.6-2.9-6.5-6.5-6.5s-6.5 2.9-6.5 6.5c0 1.6.7 3.4 2 5.2.2.3.4.6.4 1 0 .3-.3.4-.3.4l-.2.2c-.6.5-1.4.7-2.2.9s-1.5.3-2.1.8c-1.4 1-1.3 2.4-1.3 2.5v2.8h20.2v-2.7c0-.2.1-1.6-1.2-2.6zm-17 3.3v-.1-.7s0-.5.5-.9c.2-.2.8-.3 1.3-.4.9-.2 2.1-.5 3.1-1.3.3-.2.9-.7 1.1-1.7.2-.8-.1-1.7-.7-2.5-1.1-1.5-1.6-2.9-1.6-4.1 0-2.5 2-4.5 4.5-4.5s4.5 2 4.5 4.5c0 1.4-.5 2.6-1.6 4-.8 1.1-.8 2-.7 2.5.2 1 .9 1.5 1.1 1.7 1 .8 2.1 1.1 3.1 1.3.5.1 1.1.2 1.3.4.5.4.5.9.5 1v.8z"/><path d="m19.9 3.7c2.5 0 4.5 2.1 4.5 4.6 0 1.4-.5 2.7-1.6 4.1-.8 1.1-.8 2-.7 2.5.2 1 .9 1.5 1.1 1.7 1 .8 2.1 1.1 3.1 1.3.5.1 1.1.2 1.3.4.5.4.5.9.5 1v.7h-8v2h10v-2.6c0-.2.1-1.5-1.2-2.6-.6-.5-1.4-.6-2.1-.8-.8-.2-1.6-.3-2.2-.9l-.1-.1s-.3-.2-.3-.5c-.1-.3.2-.7.4-.9 1.4-1.8 2-3.5 2-5.3 0-3.6-2.9-6.7-6.5-6.7s-6.7 3.4-6.7 6.4h2c0-2 2-4.3 4.5-4.3z"/></svg>