<svg enable-background="new 0 0 32 32" viewBox="0 0 32 32" xmlns="http://www.w3.org/2000/svg"><path d="m28.3 23.1c-.8-.6-1.8-.8-2.9-1.1-1.2-.3-2.4-.5-3.3-1.3l-.1-.1s-.5-.4-.6-.9.1-1 .6-1.6c1.9-2.4 2.8-4.8 2.8-7.2 0-5-4-8.9-8.8-8.9s-8.8 3.9-8.8 8.8c0 2.2.9 4.7 2.8 7.2.5.6.7 1.2.6 1.7-.1.6-.6.9-.6.9l-.2.1c-.9.8-2.1 1.1-3.3 1.3-1.1.2-2.1.5-2.9 1.1-1.4 1.1-1.6 2.7-1.6 3.3v3.6h27.8v-3.5c.2-.7-.1-2.3-1.5-3.4zm-24.3 4.9v-.7-1s0-1 .9-1.7c.4-.3 1.2-.5 2-.7 1.3-.3 2.9-.6 4.2-1.8.3-.2 1.2-.9 1.4-2.1.2-1.1-.1-2.2-.9-3.3-1.6-2.2-2.4-4.3-2.4-6 0-3.7 3.1-6.7 6.8-6.7s6.8 3 6.8 6.8c0 2-.8 3.9-2.4 6-.8 1.1-1.2 2.2-1 3.2.2 1.3 1.2 2 1.5 2.2 1.3 1.1 2.9 1.5 4.2 1.8.8.2 1.6.4 2 .7.9.7.8 1.7.8 1.8v1.6h-23.9z"/></svg>